<svg id="Layer_1" data-name="Layer 1" xmlns="http://www.w3.org/2000/svg" viewBox="0 0 297.45 416.23"><defs><style>.cls-1{fill:#131313;}.cls-2{fill:#6a1b9a;}.cls-3{fill:#8e24aa;}.cls-4{fill:#ebebeb;}.cls-5{fill:#fff;}</style></defs><title>CSSS0</title><path class="cls-1" d="M654,100.33H629.29L655,128.19v13.26H602.08V125.92h25.67L602.08,98.06V84.78H654v15.55Zm-62.38,0H566.91l25.67,27.86v13.26H539.7V125.92h25.67L539.7,98.06V84.78h51.9v15.55Zm-61.77.63H503.19v24.31h26.64v16.18H484.26V84.78h45.57Z" transform="translate(-452.07 -84.78)"/><path class="cls-1" d="M716.35,100.33H691.66l25.67,27.86v13.26H664.45V125.92h25.67L664.45,98.06V84.78h51.9v15.55Z" transform="translate(-452.07 -84.78)"/><polygon class="cls-2" points="27.07 382.51 0 78.89 297.45 78.89 270.35 382.46 148.54 416.23 27.07 382.51"/><polygon class="cls-3" points="148.73 390.42 247.15 363.13 270.31 103.71 148.73 103.71 148.73 390.42"/><polygon class="cls-3" points="148.73 390.42 247.15 363.13 270.31 103.71 148.73 103.71 148.73 390.42"/><polygon class="cls-4" points="148.73 131.88 148.73 164.08 82.36 164.08 95.48 311.27 148.73 326.02 148.73 362.25 63.3 338.57 45.36 131.88 148.73 131.88"/><polygon class="cls-5" points="148.73 131.88 148.73 164.08 215.1 164.08 201.97 311.27 148.73 326.02 148.73 362.25 234.16 338.57 252.09 131.88 148.73 131.88"/></svg>